<?xml version="1.0" encoding="UTF-8"?>
<svg xmlns="http://www.w3.org/2000/svg" xmlns:xlink="http://www.w3.org/1999/xlink" height="100%" width="100%" viewBox="0 0 857 857">
  <defs>
    <linearGradient id="grad1" x1="0%" y1="0%" x2="100%" y2="100%">
      <stop offset="0%" style="stop-color:#df2a25;stop-opacity:1"/>
      <stop offset="100%" style="stop-color:#b41217;stop-opacity:1"/>
    </linearGradient>
  </defs>
  <circle cx="424" cy="424" r="424" fill="url(#grad1)"/>
  <path fill="white" d="M203 331l121-79 16 9z m305-175c0 0-5-36-20-51-20-21-42-21-52-22-71-5-179-5-179-5 0 0-134 1-175 5-11 2-37 1-56 22-16 15-21 51-21 51 0 0-5 41-5 82l0 39c0 42 5 83 5 83 0 0 5 36 21 51 19 21 41 21 51 22 72 5 180 5 180 5l0 0c0 0 108 0 179-5 10-1 32-1 52-22 15-15 20-51 20-51 0 0 5-41 5-83l0-39c0-41-5-82-5-82z m-305 175l0-144 136 73z" transform="scale(1, -1) translate(172,-680)"/>
</svg>