<?xml version="1.0" encoding="UTF-8"?>
<!-- Generator: Adobe Illustrator 19.1.0, SVG Export Plug-In . SVG Version: 6.00 Build 0)  -->
<svg version="1.1" id="Layer_1" xmlns:sketch="http://www.bohemiancoding.com/sketch/ns" xmlns="http://www.w3.org/2000/svg" xmlns:xlink="http://www.w3.org/1999/xlink" x="0px" y="0px" viewBox="-307 389 24 24" enable-background="new -307 389 24 24" xml:space="preserve">
<title>Slice 1</title>
<desc>Created with Sketch.</desc>
<circle id="Oval-1" sketch:type="MSShapeGroup" fill="#DC4E41" cx="-295" cy="401" r="12">
</circle>
<g id="logo_google_plus_32px_clr" transform="translate(2.152051, 2.152051)" sketch:type="MSLayerGroup">
	<path id="Shape_2_" sketch:type="MSShapeGroup" fill="#FFFFFF" d="M-288.9,398.1h-1.5v-1.5h-1.5v1.5h-1.5v1.5h1.5v1.5h1.5v-1.5h1.5   V398.1z"/>
	<path id="Shape_7_" sketch:type="MSShapeGroup" fill="none" d="M-309.2,386.8h24v24h-24V386.8z"/>
</g>
<path id="Shape_8_" sketch:type="MSShapeGroup" fill="#FFFFFF" d="M-297.9,400.4v1.8h2.9c-0.1,0.7-0.9,2.2-2.9,2.2  c-1.8,0-3.3-1.5-3.3-3.3s1.5-3.3,3.3-3.3c1,0,1.7,0.5,2.1,0.9l1.5-1.3c-0.9-0.9-2.1-1.3-3.5-1.3c-2.9,0-5.2,2.3-5.2,5.2  s2.3,5.2,5.2,5.2c3,0,5-2.1,5-5.1c0-0.4,0-0.6-0.1-0.9L-297.9,400.4L-297.9,400.4z"/>
</svg>