<?xml version="1.0" encoding="UTF-8"?>
<!-- Generator: Adobe Illustrator 19.0.1, SVG Export Plug-In . SVG Version: 6.00 Build 0)  -->
<svg version="1.1" id="Layer_9" xmlns="http://www.w3.org/2000/svg" xmlns:xlink="http://www.w3.org/1999/xlink" x="0px" y="0px" viewBox="0 0 24 24" enable-background="new 0 0 24 24" xml:space="preserve">
<g>
	<path fill-rule="evenodd" clip-rule="evenodd" fill="#181616" d="M12,0.5C5.5,0.5,0.2,5.8,0.2,12.3c0,5.2,3.4,9.6,8.1,11.2   c0.6,0.1,0.8-0.3,0.8-0.6c0-0.3,0-1.2,0-2.2c-3.3,0.7-4-1.4-4-1.4c-0.5-1.4-1.3-1.7-1.3-1.7c-1.1-0.7,0.1-0.7,0.1-0.7   c1.2,0.1,1.8,1.2,1.8,1.2c1.1,1.8,2.8,1.3,3.4,1c0.1-0.8,0.4-1.3,0.7-1.6c-2.6-0.3-5.4-1.3-5.4-5.8c0-1.3,0.5-2.3,1.2-3.2   C5.6,8.2,5.2,7,5.8,5.4c0,0,1-0.3,3.2,1.2C10,6.3,11,6.2,12,6.2c1,0,2,0.1,3,0.4c2.2-1.5,3.2-1.2,3.2-1.2c0.6,1.6,0.2,2.8,0.1,3.1   c0.8,0.8,1.2,1.9,1.2,3.2c0,4.5-2.8,5.5-5.4,5.8c0.4,0.4,0.8,1.1,0.8,2.2c0,1.6,0,2.8,0,3.2c0,0.3,0.2,0.7,0.8,0.6   c4.7-1.6,8-6,8-11.2C23.8,5.8,18.5,0.5,12,0.5z"/>
	<path fill="#181616" d="M4.7,17.4c0,0.1-0.1,0.1-0.2,0c-0.1,0-0.1-0.1-0.1-0.2c0-0.1,0.1-0.1,0.2,0C4.7,17.3,4.7,17.4,4.7,17.4   L4.7,17.4z M4.5,17.3"/>
	<path fill="#181616" d="M5.2,18C5.1,18,5,18,4.9,17.9c-0.1-0.1-0.1-0.2,0-0.2c0.1-0.1,0.2,0,0.2,0.1C5.2,17.8,5.2,17.9,5.2,18   L5.2,18z M5,17.8"/>
	<path fill="#181616" d="M5.6,18.6c-0.1,0.1-0.2,0-0.3-0.1c-0.1-0.1-0.1-0.2,0-0.3c0.1-0.1,0.2,0,0.3,0.1   C5.7,18.5,5.7,18.6,5.6,18.6L5.6,18.6z M5.6,18.6"/>
	<path fill="#181616" d="M6.3,19.3c-0.1,0.1-0.2,0.1-0.3,0c-0.1-0.1-0.1-0.2-0.1-0.3c0.1-0.1,0.2-0.1,0.3,0   C6.3,19.1,6.3,19.2,6.3,19.3L6.3,19.3z M6.3,19.3"/>
	<path fill="#181616" d="M7.1,19.7c0,0.1-0.2,0.1-0.3,0.1c-0.1,0-0.2-0.1-0.2-0.2c0-0.1,0.2-0.1,0.3-0.1C7.1,19.5,7.2,19.6,7.1,19.7   L7.1,19.7z M7.1,19.7"/>
	<path fill="#181616" d="M8.1,19.7c0,0.1-0.1,0.2-0.2,0.2c-0.1,0-0.3-0.1-0.3-0.2c0-0.1,0.1-0.2,0.3-0.2C8,19.6,8.1,19.6,8.1,19.7   L8.1,19.7z M8.1,19.7"/>
	<path fill="#181616" d="M9,19.6c0,0.1-0.1,0.2-0.2,0.2c-0.1,0-0.3,0-0.3-0.1c0-0.1,0.1-0.2,0.2-0.2C8.9,19.4,9,19.5,9,19.6L9,19.6z    M9,19.6"/>
</g>
</svg>