<?xml version="1.0" encoding="UTF-8"?>
<svg xmlns="http://www.w3.org/2000/svg" xmlns:xlink="http://www.w3.org/1999/xlink" height="100%" width="100%" viewBox="0 0 512 512">
  <circle cx="256" cy="256" r="256" fill="#55acee"/>
  <path fill="white" d="M385 300c3-83-59-177-169-177-34 0-65 10-91 27 31-4 63 5 88 25-26 0-48 17-56 41 10-2 19-1 27 1-28 6-48 31-47 59 8-4 17-7 26-7-26 17-33 52-18 79 29-36 73-60 122-62-8 37 20 73 58 73 17 0 33-8 44-19 13 3 26 8 37 14-4-14-13-25-26-33 12 2 24 5 34 10-8-12-18-23-29-31z" transform="scale(1, -1) translate(0,-512)"/>
</svg>